<svg width="23" height="18" viewBox="0 0 23 18" fill="none" xmlns="http://www.w3.org/2000/svg">
<path fill-rule="evenodd" clip-rule="evenodd" d="M0.979492 1C0.979492 0.447715 1.42721 0 1.97949 0H6.47949C6.93044 0 7.3256 0.301821 7.44426 0.736883L8.19783 3.5H21.4795C21.7902 3.5 22.0832 3.6444 22.2725 3.89076C22.4618 4.13713 22.5258 4.45747 22.4457 4.75766L20.4457 12.2577C20.329 12.6954 19.9325 13 19.4795 13H9.47949C9.02854 13 8.63338 12.6982 8.51473 12.2631L5.7157 2H1.97949C1.42721 2 0.979492 1.55228 0.979492 1ZM8.74329 5.5L10.2433 11H12.2597L11.1597 5.5H8.74329ZM13.1993 5.5L14.2993 11H16.7597L15.6597 5.5H13.1993ZM17.6993 5.5L18.7615 10.8113L20.1779 5.5H17.6993Z" fill="#333333"/>
<path fill-rule="evenodd" clip-rule="evenodd" d="M0.979492 1C0.979492 0.447715 1.42721 0 1.97949 0H6.47949C6.93044 0 7.3256 0.301821 7.44426 0.736883L8.19783 3.5H21.4795C21.7902 3.5 22.0832 3.6444 22.2725 3.89076C22.4618 4.13713 22.5258 4.45747 22.4457 4.75766L20.4457 12.2577C20.329 12.6954 19.9325 13 19.4795 13H9.47949C9.02854 13 8.63338 12.6982 8.51473 12.2631L5.7157 2H1.97949C1.42721 2 0.979492 1.55228 0.979492 1ZM8.74329 5.5L10.2433 11H12.2597L11.1597 5.5H8.74329ZM13.1993 5.5L14.2993 11H16.7597L15.6597 5.5H13.1993ZM17.6993 5.5L18.7615 10.8113L20.1779 5.5H17.6993Z" fill="#333333"/>
<path d="M12.9795 16C12.9795 17.1046 12.0841 18 10.9795 18C9.87492 18 8.97949 17.1046 8.97949 16C8.97949 14.8954 9.87492 14 10.9795 14C12.0841 14 12.9795 14.8954 12.9795 16Z" fill="#333333"/>
<path d="M12.9795 16C12.9795 17.1046 12.0841 18 10.9795 18C9.87492 18 8.97949 17.1046 8.97949 16C8.97949 14.8954 9.87492 14 10.9795 14C12.0841 14 12.9795 14.8954 12.9795 16Z" fill="#333333"/>
<path d="M17.9795 18C19.0841 18 19.9795 17.1046 19.9795 16C19.9795 14.8954 19.0841 14 17.9795 14C16.8749 14 15.9795 14.8954 15.9795 16C15.9795 17.1046 16.8749 18 17.9795 18Z" fill="#333333"/>
<path d="M17.9795 18C19.0841 18 19.9795 17.1046 19.9795 16C19.9795 14.8954 19.0841 14 17.9795 14C16.8749 14 15.9795 14.8954 15.9795 16C15.9795 17.1046 16.8749 18 17.9795 18Z" fill="#333333"/>
</svg>
