<svg width="21" height="12" viewBox="0 0 21 12" fill="none" xmlns="http://www.w3.org/2000/svg">
<path d="M5.14084 5.12061C5.65519 5.59191 5.69009 6.39094 5.21879 6.90528C4.74748 7.41963 3.94846 7.45453 3.43411 6.98322C2.91977 6.51192 2.88487 5.7129 3.35617 5.19855C3.82747 4.68421 4.6265 4.64931 5.14084 5.12061Z" fill="white"/>
<path d="M5.14084 5.12061C5.65519 5.59191 5.69009 6.39094 5.21879 6.90528C4.74748 7.41963 3.94846 7.45453 3.43411 6.98322C2.91977 6.51192 2.88487 5.7129 3.35617 5.19855C3.82747 4.68421 4.6265 4.64931 5.14084 5.12061Z" fill="url(#paint0_linear_1_992)"/>
<path fill-rule="evenodd" clip-rule="evenodd" d="M11.9732 9.37376L11.1609 8.38388L11.1562 8.38271C11.0307 8.35144 10.8603 8.30953 10.6796 8.26678C10.5362 8.23284 10.3967 8.20093 10.272 8.17368C10.0479 8.66777 9.74324 9.13499 9.35774 9.55569C7.39399 11.6988 4.06471 11.8442 1.9216 9.88045C-0.221506 7.91669 -0.366901 4.58742 1.59685 2.44431C3.56061 0.301199 6.88988 0.155804 9.03299 2.11956C9.49963 2.54715 9.87216 3.04039 10.1486 3.57254L17.923 3.63308C18.0366 3.63396 18.1479 3.6655 18.2451 3.72435L20.0818 4.83619C20.2624 4.94555 20.3764 5.13796 20.3857 5.34893L20.4116 5.94382C20.4189 6.11116 20.3595 6.27456 20.2463 6.39806L18.5396 8.26067C18.378 8.43705 18.1306 8.50697 17.9005 8.4413L17.3705 8.28998L16.7809 8.9335C16.5452 9.19067 16.1457 9.20812 15.8886 8.97247L15.4229 8.54579L14.9962 9.01144C14.7606 9.26861 14.3611 9.28606 14.1039 9.05041L13.6382 8.62373L12.9271 9.39982C12.8034 9.5348 12.6272 9.60947 12.4442 9.60448C12.2612 9.59948 12.0893 9.5153 11.9732 9.37376ZM2.52816 3.29768C1.03571 4.92644 1.14621 7.45669 2.77497 8.94914C4.40373 10.4416 6.93398 10.3311 8.42643 8.70233C8.82108 8.27164 9.10285 7.77937 9.2747 7.26052C9.36682 6.98237 9.63816 6.80411 9.93002 6.82998C10.1588 6.85026 10.6221 6.95514 10.9705 7.03757C11.1575 7.08181 11.333 7.12497 11.4617 7.15703C11.5261 7.17307 11.5789 7.18638 11.6157 7.1957L11.6584 7.20656L11.6739 7.21052C11.8041 7.24387 11.9202 7.31784 12.0054 7.42169L12.4877 8.00955L13.1336 7.30471C13.3693 7.04753 13.7688 7.03009 14.0259 7.26574L14.4916 7.69242L14.9183 7.22677C15.1539 6.96959 15.5534 6.95215 15.8106 7.1878L16.2763 7.61448L16.7029 7.14883C16.8646 6.97245 17.112 6.90252 17.342 6.9682L17.872 7.11951L19.1359 5.74017L17.7395 4.89485L9.74151 4.83256C9.48912 4.8306 9.26213 4.67855 9.16426 4.4459C8.94789 3.93153 8.61961 3.45403 8.17962 3.05086C6.55086 1.55841 4.02061 1.66891 2.52816 3.29768Z" fill="white"/>
<path fill-rule="evenodd" clip-rule="evenodd" d="M11.9732 9.37376L11.1609 8.38388L11.1562 8.38271C11.0307 8.35144 10.8603 8.30953 10.6796 8.26678C10.5362 8.23284 10.3967 8.20093 10.272 8.17368C10.0479 8.66777 9.74324 9.13499 9.35774 9.55569C7.39399 11.6988 4.06471 11.8442 1.9216 9.88045C-0.221506 7.91669 -0.366901 4.58742 1.59685 2.44431C3.56061 0.301199 6.88988 0.155804 9.03299 2.11956C9.49963 2.54715 9.87216 3.04039 10.1486 3.57254L17.923 3.63308C18.0366 3.63396 18.1479 3.6655 18.2451 3.72435L20.0818 4.83619C20.2624 4.94555 20.3764 5.13796 20.3857 5.34893L20.4116 5.94382C20.4189 6.11116 20.3595 6.27456 20.2463 6.39806L18.5396 8.26067C18.378 8.43705 18.1306 8.50697 17.9005 8.4413L17.3705 8.28998L16.7809 8.9335C16.5452 9.19067 16.1457 9.20812 15.8886 8.97247L15.4229 8.54579L14.9962 9.01144C14.7606 9.26861 14.3611 9.28606 14.1039 9.05041L13.6382 8.62373L12.9271 9.39982C12.8034 9.5348 12.6272 9.60947 12.4442 9.60448C12.2612 9.59948 12.0893 9.5153 11.9732 9.37376ZM2.52816 3.29768C1.03571 4.92644 1.14621 7.45669 2.77497 8.94914C4.40373 10.4416 6.93398 10.3311 8.42643 8.70233C8.82108 8.27164 9.10285 7.77937 9.2747 7.26052C9.36682 6.98237 9.63816 6.80411 9.93002 6.82998C10.1588 6.85026 10.6221 6.95514 10.9705 7.03757C11.1575 7.08181 11.333 7.12497 11.4617 7.15703C11.5261 7.17307 11.5789 7.18638 11.6157 7.1957L11.6584 7.20656L11.6739 7.21052C11.8041 7.24387 11.9202 7.31784 12.0054 7.42169L12.4877 8.00955L13.1336 7.30471C13.3693 7.04753 13.7688 7.03009 14.0259 7.26574L14.4916 7.69242L14.9183 7.22677C15.1539 6.96959 15.5534 6.95215 15.8106 7.1878L16.2763 7.61448L16.7029 7.14883C16.8646 6.97245 17.112 6.90252 17.342 6.9682L17.872 7.11951L19.1359 5.74017L17.7395 4.89485L9.74151 4.83256C9.48912 4.8306 9.26213 4.67855 9.16426 4.4459C8.94789 3.93153 8.61961 3.45403 8.17962 3.05086C6.55086 1.55841 4.02061 1.66891 2.52816 3.29768Z" fill="url(#paint1_linear_1_992)"/>
<defs>
<linearGradient id="paint0_linear_1_992" x1="10.3132" y1="0.736816" x2="10.3132" y2="11.2632" gradientUnits="userSpaceOnUse">
<stop stop-color="white"/>
<stop offset="1" stop-color="white" stop-opacity="0"/>
</linearGradient>
<linearGradient id="paint1_linear_1_992" x1="10.3132" y1="0.736816" x2="10.3132" y2="11.2632" gradientUnits="userSpaceOnUse">
<stop stop-color="white"/>
<stop offset="1" stop-color="white" stop-opacity="0"/>
</linearGradient>
</defs>
</svg>
