<svg width="17" height="20" viewBox="0 0 17 20" fill="none" xmlns="http://www.w3.org/2000/svg">
<path fill-rule="evenodd" clip-rule="evenodd" d="M1.54507 8.14815C1.54507 6.14305 2.27115 4.48597 3.47483 3.33183C4.6785 2.17769 6.4067 1.48148 8.49786 1.48148C10.589 1.48148 12.3172 2.17769 13.5209 3.33183C14.7246 4.48597 15.4507 6.14305 15.4507 8.14815C15.4507 9.07452 15.0895 10.1947 14.4687 11.3964C13.8539 12.5864 13.0159 13.7969 12.136 14.8866C11.2566 15.9756 10.3495 16.9266 9.60859 17.5987C9.23668 17.936 8.91888 18.1919 8.67633 18.3582C8.60562 18.4066 8.54623 18.4441 8.49786 18.4722C8.44949 18.4441 8.3901 18.4066 8.31939 18.3582C8.07683 18.1919 7.75904 17.936 7.38713 17.5987C6.64621 16.9266 5.73914 15.9756 4.85977 14.8866C3.97985 13.7969 3.14178 12.5864 2.52703 11.3964C1.90623 10.1947 1.54507 9.07452 1.54507 8.14815ZM8.37858 18.5332C8.37369 18.5347 8.37114 18.5357 8.37109 18.5358C8.37106 18.5359 8.37232 18.5356 8.37494 18.5346C8.37595 18.5342 8.37716 18.5338 8.37858 18.5332ZM8.61715 18.5332C8.622 18.5347 8.62455 18.5357 8.62462 18.5358C8.6247 18.536 8.62226 18.5352 8.61715 18.5332ZM8.49786 0C6.038 0 3.90354 0.825632 2.3823 2.28426C0.861067 3.74289 0 5.78952 0 8.14815C0 9.40364 0.475743 10.7633 1.1425 12.054C1.81531 13.3564 2.71544 14.651 3.63809 15.7936C4.5613 16.9369 5.52118 17.9455 6.32532 18.6749C6.72595 19.0383 7.10021 19.3436 7.42097 19.5634C7.58049 19.6728 7.74159 19.7712 7.8967 19.8454C8.02981 19.909 8.24879 20 8.49786 20C8.74693 20 8.96591 19.909 9.09902 19.8454C9.25413 19.7712 9.41523 19.6728 9.57475 19.5634C9.89551 19.3436 10.2698 19.0383 10.6704 18.6749C11.4745 17.9455 12.4344 16.9369 13.3576 15.7936C14.2803 14.651 15.1804 13.3564 15.8532 12.054C16.52 10.7633 16.9957 9.40364 16.9957 8.14815C16.9957 5.78952 16.1347 3.74289 14.6134 2.28426C13.0922 0.825632 10.9577 0 8.49786 0ZM6.1805 8.64196C6.1805 7.41467 7.21813 6.41974 8.4981 6.41974C9.77808 6.41974 10.8157 7.41467 10.8157 8.64196C10.8157 9.86926 9.77808 10.8642 8.4981 10.8642C7.21813 10.8642 6.1805 9.86926 6.1805 8.64196ZM8.4981 4.93826C6.36481 4.93826 4.63544 6.59647 4.63544 8.64196C4.63544 10.6875 6.36481 12.3457 8.4981 12.3457C10.6314 12.3457 12.3608 10.6875 12.3608 8.64196C12.3608 6.59647 10.6314 4.93826 8.4981 4.93826Z" fill="#00EA90"/>
</svg>
