<svg width="21" height="20" viewBox="0 0 21 20" fill="none" xmlns="http://www.w3.org/2000/svg">
<path fill-rule="evenodd" clip-rule="evenodd" d="M7.14243 1.20155C7.15406 1.21527 7.16375 1.2267 7.17144 1.23549C7.37095 1.46351 7.59358 1.70046 7.83582 1.95828C7.94648 2.07607 8.06124 2.19822 8.17976 2.32586C8.5462 2.72048 8.93379 3.1525 9.26816 3.59832C9.73049 4.21476 9.89138 4.82011 9.77865 5.38391C9.67298 5.91243 9.35214 6.25493 9.1964 6.41068C9.16752 6.43956 9.1364 6.46609 9.10336 6.49003C9.09729 6.49649 9.07797 6.51692 9.04418 6.5596C8.98473 6.63469 8.91611 6.73193 8.82644 6.86034C8.8181 6.87229 8.80957 6.88452 8.80085 6.89703C8.64039 7.12714 8.41693 7.44762 8.16635 7.69819C7.84563 8.01892 7.82661 8.20279 7.82602 8.24438C7.82542 8.28695 7.84201 8.34145 7.90884 8.40828C7.91436 8.4138 7.91979 8.4194 7.92514 8.42508L12.0453 12.8028C12.3042 13.0779 12.4832 13.0956 12.5551 13.0942C12.6041 13.0932 12.6498 13.0818 12.6899 13.0645C12.7099 13.0559 12.7267 13.0466 12.7398 13.0381C12.7462 13.0339 12.7513 13.0303 12.7549 13.0275C12.7584 13.0248 12.7601 13.0233 12.7601 13.0233L12.76 13.0233C12.9272 12.8683 13.1747 12.6172 13.4702 12.3175C13.6332 12.1521 13.8109 11.9719 13.9976 11.7849C14.5998 11.0466 15.2757 10.6802 16.0101 10.7618C16.6435 10.8322 17.1255 11.2345 17.3666 11.4358C17.3729 11.4411 17.3791 11.4462 17.385 11.4512C17.6793 11.6964 18.1337 12.1527 18.5635 12.593C18.7368 12.7706 18.9084 12.9479 19.0712 13.1162C19.33 13.3836 19.5669 13.6285 19.7543 13.816C20.1936 14.2553 20.4025 14.772 20.2771 15.3151C20.1836 15.7197 19.9127 16.0212 19.8112 16.1342C19.8027 16.1437 19.7954 16.1518 19.7895 16.1585C19.4756 16.5172 18.945 17.0874 18.3585 17.6496C17.7825 18.2017 17.1086 18.789 16.5154 19.1449C15.7006 19.6338 14.6982 19.7736 13.894 19.737C13.4859 19.7185 13.0895 19.6531 12.7558 19.5401C12.5893 19.4836 12.4186 19.4087 12.2648 19.3078C12.1787 19.2512 12.0813 19.1756 11.9922 19.0765C10.4928 18.2201 8.50717 16.5359 6.69233 14.7523C4.80973 12.9022 3.02334 10.8586 2.07563 9.3693C0.472732 6.85047 0.971301 4.58992 1.55725 3.6524C1.57311 3.62703 1.59042 3.6026 1.60911 3.57924C1.96596 3.13318 2.92915 1.99501 3.98369 0.940466C4.31864 0.605524 4.68745 0.381024 5.08924 0.29544C5.49674 0.20864 5.86388 0.280609 6.16174 0.412122C6.65978 0.632025 7.01582 1.05215 7.14243 1.20155ZM5.41113 1.8066C5.37032 1.8153 5.2563 1.85291 5.07622 2.03299C4.10129 3.00793 3.20185 4.06563 2.84737 4.50491C2.57208 4.98558 2.12884 6.57505 3.37914 8.53979C4.23399 9.88314 5.92401 11.8309 7.77531 13.6503C9.63291 15.4759 11.5655 17.0857 12.8827 17.8042C12.9849 17.86 13.0727 17.9378 13.14 18.0314C13.1629 18.043 13.1992 18.0589 13.2515 18.0767C13.4168 18.1327 13.6642 18.1799 13.9642 18.1935C14.5763 18.2214 15.2478 18.1036 15.7205 17.82C16.1574 17.5579 16.7281 17.0722 17.2894 16.5342C17.8402 16.0062 18.3397 15.4691 18.6267 15.1411L18.6399 15.126C18.6901 15.0686 18.7198 15.0347 18.7441 15.0021C18.7271 14.979 18.7011 14.9478 18.6618 14.9085C18.4669 14.7135 18.2127 14.4509 17.9454 14.1747C17.7843 14.0082 17.6184 13.8367 17.4578 13.6722C17.012 13.2155 16.6167 12.8221 16.3959 12.6381C16.1153 12.4043 15.9621 12.3111 15.8395 12.2974C15.839 12.2974 15.8385 12.2973 15.8379 12.2972C15.8051 12.2934 15.5896 12.268 15.1761 12.7848C15.1583 12.807 15.1393 12.8283 15.1191 12.8485C14.9504 13.0172 14.7778 13.1922 14.6121 13.3601C14.2944 13.6823 14.0021 13.9787 13.8106 14.1562C13.5519 14.3961 13.1191 14.6282 12.5863 14.6389C12.0203 14.6504 11.4369 14.4106 10.9202 13.8617L6.80702 9.49146C6.53386 9.21453 6.27321 8.78315 6.28111 8.22262C6.28911 7.65474 6.57051 7.10898 7.07383 6.60567C7.22165 6.45784 7.37387 6.24181 7.55966 5.97575C7.64381 5.85524 7.73935 5.71858 7.8328 5.60055C7.90178 5.51342 8.00586 5.38851 8.13802 5.28288C8.21596 5.19949 8.25223 5.13773 8.26357 5.08098C8.26941 5.0518 8.30155 4.88461 8.03211 4.52536C7.74844 4.14714 7.40643 3.76369 7.04754 3.37719C6.94447 3.26618 6.83841 3.15329 6.73211 3.04013C6.48014 2.77191 6.22681 2.50225 6.00866 2.25292L6.00864 2.25291C5.99296 2.23499 5.97791 2.21758 5.96315 2.20051C5.90199 2.12978 5.84603 2.06505 5.7725 1.99525C5.68332 1.9106 5.60384 1.85476 5.53767 1.82555C5.48145 1.80072 5.44622 1.79913 5.41113 1.8066ZM13.109 18.0135C13.1091 18.0135 13.1102 18.0143 13.1123 18.0159C13.11 18.0143 13.109 18.0135 13.109 18.0135Z" fill="#00EA90"/>
</svg>
