<svg width="23" height="18" viewBox="0 0 23 18" fill="none" xmlns="http://www.w3.org/2000/svg">
<path fill-rule="evenodd" clip-rule="evenodd" d="M16.1279 0H22.1663V18L21.1598 18L16.1279 18H14.1151H8.07675H6.06397H1.03202H0.0256348V10H6.06397V16H8.07675V4H14.1151V16H16.1279V0ZM18.1407 16H20.1535V2H18.1407V16ZM12.1023 16V6H10.0895V16H12.1023ZM4.05119 16V12H2.03841V16H4.05119Z" fill="white"/>
<path fill-rule="evenodd" clip-rule="evenodd" d="M16.1279 0H22.1663V18L21.1598 18L16.1279 18H14.1151H8.07675H6.06397H1.03202H0.0256348V10H6.06397V16H8.07675V4H14.1151V16H16.1279V0ZM18.1407 16H20.1535V2H18.1407V16ZM12.1023 16V6H10.0895V16H12.1023ZM4.05119 16V12H2.03841V16H4.05119Z" fill="url(#paint0_linear_1_847)"/>
<defs>
<linearGradient id="paint0_linear_1_847" x1="11.096" y1="0" x2="11.096" y2="18" gradientUnits="userSpaceOnUse">
<stop stop-color="white"/>
<stop offset="1" stop-color="white" stop-opacity="0"/>
</linearGradient>
</defs>
</svg>
