<svg width="21" height="20" viewBox="0 0 21 20" fill="none" xmlns="http://www.w3.org/2000/svg">
<path fill-rule="evenodd" clip-rule="evenodd" d="M10.3421 0.5C10.7139 0.5 11.0554 0.703686 11.2303 1.02972L13.939 6.08069L19.6105 7.07969C19.9766 7.14418 20.2771 7.40397 20.392 7.75532C20.5069 8.10668 20.4175 8.49235 20.1594 8.75834L16.1621 12.879L16.9585 18.5474C17.0099 18.9133 16.8541 19.2775 16.5533 19.4947C16.2525 19.7118 15.8557 19.7465 15.5214 19.5849L10.3421 17.0806L5.16281 19.5849C4.82849 19.7465 4.43171 19.7118 4.13092 19.4947C3.83013 19.2775 3.67433 18.9133 3.72574 18.5474L4.52215 12.879L0.524758 8.75834C0.26673 8.49235 0.177308 8.10668 0.2922 7.75532C0.407092 7.40397 0.707579 7.14418 1.07367 7.07969L6.74517 6.08069L9.45395 1.02972C9.62879 0.703686 9.9703 0.5 10.3421 0.5ZM10.3421 3.6264L8.29119 7.45068C8.1458 7.72177 7.88309 7.91143 7.57869 7.96505L3.28458 8.72143L6.31116 11.8414C6.52571 12.0625 6.62605 12.3694 6.58331 12.6736L5.98031 16.9654L9.90176 15.0693C10.1797 14.9349 10.5045 14.9349 10.7824 15.0693L14.7039 16.9654L14.1009 12.6736C14.0582 12.3694 14.1585 12.0625 14.373 11.8414L17.3996 8.72143L13.1055 7.96505C12.8011 7.91143 12.5384 7.72177 12.393 7.45068L10.3421 3.6264Z" fill="white"/>
<path fill-rule="evenodd" clip-rule="evenodd" d="M10.3421 0.5C10.7139 0.5 11.0554 0.703686 11.2303 1.02972L13.939 6.08069L19.6105 7.07969C19.9766 7.14418 20.2771 7.40397 20.392 7.75532C20.5069 8.10668 20.4175 8.49235 20.1594 8.75834L16.1621 12.879L16.9585 18.5474C17.0099 18.9133 16.8541 19.2775 16.5533 19.4947C16.2525 19.7118 15.8557 19.7465 15.5214 19.5849L10.3421 17.0806L5.16281 19.5849C4.82849 19.7465 4.43171 19.7118 4.13092 19.4947C3.83013 19.2775 3.67433 18.9133 3.72574 18.5474L4.52215 12.879L0.524758 8.75834C0.26673 8.49235 0.177308 8.10668 0.2922 7.75532C0.407092 7.40397 0.707579 7.14418 1.07367 7.07969L6.74517 6.08069L9.45395 1.02972C9.62879 0.703686 9.9703 0.5 10.3421 0.5ZM10.3421 3.6264L8.29119 7.45068C8.1458 7.72177 7.88309 7.91143 7.57869 7.96505L3.28458 8.72143L6.31116 11.8414C6.52571 12.0625 6.62605 12.3694 6.58331 12.6736L5.98031 16.9654L9.90176 15.0693C10.1797 14.9349 10.5045 14.9349 10.7824 15.0693L14.7039 16.9654L14.1009 12.6736C14.0582 12.3694 14.1585 12.0625 14.373 11.8414L17.3996 8.72143L13.1055 7.96505C12.8011 7.91143 12.5384 7.72177 12.393 7.45068L10.3421 3.6264Z" fill="url(#paint0_linear_1_856)"/>
<defs>
<linearGradient id="paint0_linear_1_856" x1="10.3421" y1="0.5" x2="10.3421" y2="19.6857" gradientUnits="userSpaceOnUse">
<stop stop-color="white"/>
<stop offset="1" stop-color="white" stop-opacity="0"/>
</linearGradient>
</defs>
</svg>
